<mxfile host="Electron" modified="2024-04-10T02:21:48.432Z" agent="Mozilla/5.0 (Windows NT 10.0; Win64; x64) AppleWebKit/537.36 (KHTML, like Gecko) draw.io/22.0.2 Chrome/114.0.5735.289 Electron/25.8.4 Safari/537.36" etag="YKvJ5svRIUKL_nu4h51E" version="22.0.2" type="device">
  <diagram name="第 1 页" id="jKTkZqrvnh0BFZjE6zUd">
    <mxGraphModel dx="737" dy="430" grid="1" gridSize="10" guides="1" tooltips="1" connect="1" arrows="1" fold="1" page="1" pageScale="1" pageWidth="827" pageHeight="1169" math="0" shadow="0">
      <root>
        <mxCell id="0" />
        <mxCell id="1" parent="0" />
        <mxCell id="nb-F5HIcwiXzBGMsncdq-2" value="" style="endArrow=none;html=1;rounded=0;strokeWidth=2;fontStyle=1" parent="1" edge="1">
          <mxGeometry width="50" height="50" relative="1" as="geometry">
            <mxPoint x="320" y="159" as="sourcePoint" />
            <mxPoint x="600" y="160" as="targetPoint" />
          </mxGeometry>
        </mxCell>
        <mxCell id="nb-F5HIcwiXzBGMsncdq-3" value="" style="endArrow=none;html=1;rounded=0;strokeWidth=2;fontStyle=1" parent="1" edge="1">
          <mxGeometry width="50" height="50" relative="1" as="geometry">
            <mxPoint x="320" y="201" as="sourcePoint" />
            <mxPoint x="600" y="201" as="targetPoint" />
          </mxGeometry>
        </mxCell>
        <mxCell id="nb-F5HIcwiXzBGMsncdq-4" value="" style="endArrow=none;html=1;rounded=0;strokeWidth=2;fontStyle=1" parent="1" edge="1">
          <mxGeometry width="50" height="50" relative="1" as="geometry">
            <mxPoint x="320" y="202" as="sourcePoint" />
            <mxPoint x="320" y="158" as="targetPoint" />
          </mxGeometry>
        </mxCell>
        <mxCell id="nb-F5HIcwiXzBGMsncdq-5" value="&lt;font style=&quot;font-size: 18px;&quot;&gt;A+C&lt;/font&gt;" style="rounded=0;whiteSpace=wrap;html=1;fillColor=#fff2cc;strokeColor=#d6b656;fontSize=14;fontStyle=1" parent="1" vertex="1">
          <mxGeometry x="321" y="160" width="80" height="40" as="geometry" />
        </mxCell>
        <mxCell id="nb-F5HIcwiXzBGMsncdq-6" value="&lt;font style=&quot;font-size: 18px;&quot;&gt;B+D&lt;/font&gt;" style="rounded=0;whiteSpace=wrap;html=1;fillColor=#dae8fc;strokeColor=#6c8ebf;fontSize=14;fontStyle=1" parent="1" vertex="1">
          <mxGeometry x="401" y="160" width="89" height="40" as="geometry" />
        </mxCell>
        <mxCell id="nb-F5HIcwiXzBGMsncdq-8" value="" style="endArrow=none;html=1;rounded=0;strokeWidth=2;fontStyle=1" parent="1" edge="1">
          <mxGeometry width="50" height="50" relative="1" as="geometry">
            <mxPoint x="321" y="240" as="sourcePoint" />
            <mxPoint x="600" y="240" as="targetPoint" />
          </mxGeometry>
        </mxCell>
        <mxCell id="nb-F5HIcwiXzBGMsncdq-9" value="" style="endArrow=none;html=1;rounded=0;strokeWidth=2;fontStyle=1" parent="1" edge="1">
          <mxGeometry width="50" height="50" relative="1" as="geometry">
            <mxPoint x="321" y="282" as="sourcePoint" />
            <mxPoint x="600" y="282" as="targetPoint" />
          </mxGeometry>
        </mxCell>
        <mxCell id="nb-F5HIcwiXzBGMsncdq-10" value="" style="endArrow=none;html=1;rounded=0;strokeWidth=2;fontStyle=1" parent="1" edge="1">
          <mxGeometry width="50" height="50" relative="1" as="geometry">
            <mxPoint x="321" y="283" as="sourcePoint" />
            <mxPoint x="321" y="239" as="targetPoint" />
          </mxGeometry>
        </mxCell>
        <mxCell id="nb-F5HIcwiXzBGMsncdq-11" value="&lt;font style=&quot;font-size: 18px;&quot;&gt;A+C&lt;/font&gt;" style="rounded=0;whiteSpace=wrap;html=1;fillColor=#fff2cc;strokeColor=#d6b656;fontSize=14;fontStyle=1" parent="1" vertex="1">
          <mxGeometry x="322" y="241" width="118" height="40" as="geometry" />
        </mxCell>
        <mxCell id="nb-F5HIcwiXzBGMsncdq-12" value="&lt;font style=&quot;font-size: 18px;&quot;&gt;B+D&lt;/font&gt;" style="rounded=0;whiteSpace=wrap;html=1;fillColor=#dae8fc;strokeColor=#6c8ebf;fontSize=14;fontStyle=1" parent="1" vertex="1">
          <mxGeometry x="440" y="241" width="130" height="40" as="geometry" />
        </mxCell>
        <mxCell id="nb-F5HIcwiXzBGMsncdq-13" value="" style="endArrow=none;html=1;rounded=0;strokeWidth=2;fontStyle=1" parent="1" edge="1">
          <mxGeometry width="50" height="50" relative="1" as="geometry">
            <mxPoint x="321" y="320" as="sourcePoint" />
            <mxPoint x="600" y="320" as="targetPoint" />
          </mxGeometry>
        </mxCell>
        <mxCell id="nb-F5HIcwiXzBGMsncdq-14" value="" style="endArrow=none;html=1;rounded=0;strokeWidth=2;fontStyle=1" parent="1" edge="1">
          <mxGeometry width="50" height="50" relative="1" as="geometry">
            <mxPoint x="321" y="362" as="sourcePoint" />
            <mxPoint x="600" y="362" as="targetPoint" />
          </mxGeometry>
        </mxCell>
        <mxCell id="nb-F5HIcwiXzBGMsncdq-15" value="" style="endArrow=none;html=1;rounded=0;strokeWidth=2;fontStyle=1" parent="1" edge="1">
          <mxGeometry width="50" height="50" relative="1" as="geometry">
            <mxPoint x="321" y="363" as="sourcePoint" />
            <mxPoint x="321" y="319" as="targetPoint" />
          </mxGeometry>
        </mxCell>
        <mxCell id="nb-F5HIcwiXzBGMsncdq-16" value="&lt;font style=&quot;font-size: 18px;&quot;&gt;A+B&lt;/font&gt;" style="rounded=0;whiteSpace=wrap;html=1;fillColor=#d5e8d4;strokeColor=#82b366;fontSize=14;fontStyle=1" parent="1" vertex="1">
          <mxGeometry x="322" y="321" width="58" height="40" as="geometry" />
        </mxCell>
        <mxCell id="nb-F5HIcwiXzBGMsncdq-17" value="&lt;font style=&quot;font-size: 18px;&quot;&gt;C+D&lt;/font&gt;" style="rounded=0;whiteSpace=wrap;html=1;fillColor=#f8cecc;strokeColor=#b85450;fontSize=14;fontStyle=1" parent="1" vertex="1">
          <mxGeometry x="380" y="321" width="90" height="40" as="geometry" />
        </mxCell>
        <mxCell id="nb-F5HIcwiXzBGMsncdq-18" value="&lt;font style=&quot;font-size: 17px;&quot;&gt;3&lt;/font&gt;" style="text;html=1;strokeColor=none;fillColor=none;align=center;verticalAlign=middle;whiteSpace=wrap;rounded=0;fontStyle=1" parent="1" vertex="1">
          <mxGeometry x="370" y="130" width="60" height="30" as="geometry" />
        </mxCell>
        <mxCell id="nb-F5HIcwiXzBGMsncdq-20" value="&lt;font style=&quot;font-size: 17px;&quot;&gt;6&lt;/font&gt;" style="text;html=1;strokeColor=none;fillColor=none;align=center;verticalAlign=middle;whiteSpace=wrap;rounded=0;fontStyle=1" parent="1" vertex="1">
          <mxGeometry x="440" y="291" width="60" height="30" as="geometry" />
        </mxCell>
        <mxCell id="nb-F5HIcwiXzBGMsncdq-21" value="&lt;font style=&quot;font-size: 17px;&quot;&gt;7&lt;/font&gt;" style="text;html=1;strokeColor=none;fillColor=none;align=center;verticalAlign=middle;whiteSpace=wrap;rounded=0;fontStyle=1" parent="1" vertex="1">
          <mxGeometry x="460" y="130" width="60" height="30" as="geometry" />
        </mxCell>
        <mxCell id="nb-F5HIcwiXzBGMsncdq-22" value="&lt;font style=&quot;font-size: 17px;&quot;&gt;5&lt;/font&gt;" style="text;html=1;strokeColor=none;fillColor=none;align=center;verticalAlign=middle;whiteSpace=wrap;rounded=0;fontStyle=1" parent="1" vertex="1">
          <mxGeometry x="410" y="211" width="60" height="30" as="geometry" />
        </mxCell>
        <mxCell id="nb-F5HIcwiXzBGMsncdq-23" value="&lt;font style=&quot;font-size: 17px;&quot;&gt;12&lt;/font&gt;" style="text;html=1;strokeColor=none;fillColor=none;align=center;verticalAlign=middle;whiteSpace=wrap;rounded=0;fontStyle=1" parent="1" vertex="1">
          <mxGeometry x="540" y="211" width="60" height="30" as="geometry" />
        </mxCell>
        <mxCell id="nb-F5HIcwiXzBGMsncdq-24" value="&lt;font style=&quot;font-size: 17px;&quot;&gt;2&lt;/font&gt;" style="text;html=1;strokeColor=none;fillColor=none;align=center;verticalAlign=middle;whiteSpace=wrap;rounded=0;fontStyle=1" parent="1" vertex="1">
          <mxGeometry x="350" y="291" width="60" height="30" as="geometry" />
        </mxCell>
        <mxCell id="nb-F5HIcwiXzBGMsncdq-25" value="&lt;font style=&quot;font-size: 17px;&quot;&gt;75% SLA Violation&lt;/font&gt;" style="text;html=1;strokeColor=none;fillColor=none;align=center;verticalAlign=middle;whiteSpace=wrap;rounded=0;fontSize=14;fontStyle=1" parent="1" vertex="1">
          <mxGeometry x="600" y="246" width="80" height="30" as="geometry" />
        </mxCell>
        <mxCell id="nb-F5HIcwiXzBGMsncdq-26" value="&lt;font style=&quot;font-size: 17px;&quot;&gt;No SLA Violation&lt;/font&gt;" style="text;html=1;strokeColor=none;fillColor=none;align=center;verticalAlign=middle;whiteSpace=wrap;rounded=0;fontSize=14;fontStyle=1" parent="1" vertex="1">
          <mxGeometry x="600" y="326" width="80" height="30" as="geometry" />
        </mxCell>
        <mxCell id="nb-F5HIcwiXzBGMsncdq-27" value="&lt;font size=&quot;1&quot; style=&quot;&quot;&gt;&lt;b style=&quot;font-size: 17px;&quot;&gt;Scheduling based on Inaccurate Prediction&lt;/b&gt;&lt;/font&gt;" style="text;html=1;strokeColor=none;fillColor=none;align=center;verticalAlign=middle;whiteSpace=wrap;rounded=0;" parent="1" vertex="1">
          <mxGeometry x="130" y="165" width="180" height="30" as="geometry" />
        </mxCell>
        <mxCell id="nb-F5HIcwiXzBGMsncdq-28" value="&lt;font size=&quot;1&quot; style=&quot;&quot;&gt;&lt;b style=&quot;font-size: 17px;&quot;&gt;Actual Scheduling Result&lt;/b&gt;&lt;/font&gt;" style="text;html=1;strokeColor=none;fillColor=none;align=center;verticalAlign=middle;whiteSpace=wrap;rounded=0;" parent="1" vertex="1">
          <mxGeometry x="130" y="246" width="170" height="30" as="geometry" />
        </mxCell>
        <mxCell id="nb-F5HIcwiXzBGMsncdq-29" value="&lt;font size=&quot;1&quot; style=&quot;&quot;&gt;&lt;b style=&quot;font-size: 17px;&quot;&gt;Actual Optimal Scheduling&lt;/b&gt;&lt;/font&gt;" style="text;html=1;strokeColor=none;fillColor=none;align=center;verticalAlign=middle;whiteSpace=wrap;rounded=0;" parent="1" vertex="1">
          <mxGeometry x="155" y="326" width="130" height="30" as="geometry" />
        </mxCell>
        <mxCell id="nb-F5HIcwiXzBGMsncdq-30" value="&lt;span style=&quot;font-size: 18px;&quot;&gt;&lt;span&gt;Deadline of Requests:&amp;nbsp;&lt;br&gt;A: 3&amp;nbsp; &amp;nbsp;B: 7&amp;nbsp; &amp;nbsp;C: 6&amp;nbsp; &amp;nbsp;D: 7&lt;/span&gt;&lt;/span&gt;" style="text;html=1;strokeColor=none;fillColor=none;align=center;verticalAlign=middle;whiteSpace=wrap;rounded=0;fontStyle=1" parent="1" vertex="1">
          <mxGeometry x="350" y="90" width="210" height="30" as="geometry" />
        </mxCell>
        <mxCell id="nb-F5HIcwiXzBGMsncdq-31" value="&lt;font style=&quot;font-size: 17px;&quot;&gt;No SLA Violation&lt;/font&gt;" style="text;html=1;strokeColor=none;fillColor=none;align=center;verticalAlign=middle;whiteSpace=wrap;rounded=0;fontSize=14;fontStyle=1" parent="1" vertex="1">
          <mxGeometry x="600" y="165" width="80" height="30" as="geometry" />
        </mxCell>
      </root>
    </mxGraphModel>
  </diagram>
</mxfile>
